<?xml version="1.0" encoding="iso-8859-1"?>
<!-- Generator: Adobe Illustrator 16.0.0, SVG Export Plug-In . SVG Version: 6.00 Build 0)  -->
<!DOCTYPE svg PUBLIC "-//W3C//DTD SVG 1.1//EN" "http://www.w3.org/Graphics/SVG/1.1/DTD/svg11.dtd">
<svg version="1.1" id="Capa_1" xmlns="http://www.w3.org/2000/svg" xmlns:xlink="http://www.w3.org/1999/xlink" x="0px" y="0px"
	 width="196.065px" height="196.065px" viewBox="0 0 196.065 196.065" style="enable-background:new 0 0 196.065 196.065;"
	 xml:space="preserve" fill="#479ffa">
<g>
	<g>
		<path d="M195.956,100.538c-1.775-24.129-24.098-44.129-47.561-41.713c-12.044-57.028-103.643-47.82-98.886,9.044
			C24.359,62.51-0.93,84.25,0.026,109.706c1.153,30.705,31.846,28.078,54.265,25.248c2.274,11.724,12.873,18.267,25.289,13.844
			c3.223-1.148,1.901-5.528-1.387-5.031c-10.562,1.154-16.012-3.271-16.351-13.275c-0.006-1.989-1.83-4.273-4.012-4.012
			c-15.709,1.881-41.79,9.021-48.68-10.677C-1.251,86.06,31.533,74.884,53.883,75.905c3.79,0.173,4.14-4.77,1.269-6.289
			c1.326-21.736,13.929-37.14,36.033-41.547c23.891-4.763,45.065,10.392,49.584,33.753c0.11,0.577,0.319,1.049,0.581,1.447
			c0.366,1.366,1.574,2.539,3.244,2.655c-0.04,0.052-0.08,0.104-0.119,0.156c12.666-0.032,20.514,0.411,30.367,9.827
			c6.564,6.272,10.869,14.126,12.807,22.917c1.78,8.082-0.376,16.931-5.685,23.198c-6.119,7.228-15.672,6.411-24.119,6.184
			c-1.171-0.032-2.03,0.465-2.624,1.179c-3.532,3.335-7.053,6.512-11.258,8.994c-2.572,1.518-5.519,2.207-8.471,2.373
			c-2.704,0.152-4.732-0.741-7.41-0.048c-2.283,0.59-2.894,3.469-1.348,5.104c4.345,4.598,13.138,3.111,18.287,0.529
			c5.026-2.521,9.073-6.341,11.519-11.237c0.125,0.05,0.213,0.138,0.349,0.175C180.237,141.843,197.614,123.073,195.956,100.538z"/>
		<path d="M132.357,112.785c0.189-0.767,0.113-1.625-0.397-2.511c-6.954-12.03-15.29-23.014-24.263-33.597
			c-0.974-1.148-3.034-1.364-4.268-0.55c-12.386,8.177-24.553,19.578-32.694,32.042c-0.73,1.117-0.37,2.312,0.404,3.143
			c-1.507,0.8-1.324,3.618,0.559,4.285c2.647,0.938,5.335,1.348,8.114,1.686c3.114,0.378,7.191,1.281,10.174,0.211
			c-1.785,8.827-2.225,17.827-2.401,26.815c-0.089,4.493-0.279,9.398-0.085,14.247c-0.496,0.391-0.738,1.177-0.17,1.657
			c0.092,0.077,0.188,0.148,0.28,0.225c0.253,4.014,0.801,7.949,1.97,11.528c0.312,0.955,1.218,1.562,2.171,1.748
			c0.078,0.131,0.137,0.267,0.256,0.387c2.384,2.415,7.591,1.455,10.564,1.188c2.146-0.193,4.807-0.135,6.729-1.195
			c0.243-0.002,0.467-0.065,0.658-0.197c1.673,1.026,4.308,0.575,4.965-1.746c3.184-11.247,2.81-24.154,2.503-35.731
			c-0.109-4.162,0.163-13.39-2.403-18.719c0.004-0.001,0.008-0.005,0.012-0.007c2.922,0.564,5.908,0.802,8.883,0.882
			c3.111,0.083,7.966,0.688,9.064-3.112C133.243,114.549,132.985,113.5,132.357,112.785z M104.548,83.894
			c6.702,8.071,12.914,16.455,18.427,25.364c-0.856-0.738-1.801-1.401-2.646-2.065c-3.302-2.599-6.58-5.229-9.876-7.837
			c-3.168-2.506-6.335-5.017-9.377-7.675c-0.58-0.507-1.991-1.578-3.227-2.732C100.043,87.187,102.271,85.48,104.548,83.894z
			 M80.929,111.733c-1.945,0.003-3.882-0.154-5.815-0.351c2.065-2.474,4.23-4.926,6.479-7.332c2.231,2.906,5.046,5.406,7.977,7.729
			C86.893,111.002,83.708,111.73,80.929,111.733z M83.682,101.878c0.798-0.823,1.632-1.617,2.449-2.426
			c4.715,3.541,9.462,7.039,14.293,10.422c2.963,2.074,6.506,5.226,10.188,6.854c-0.313,1.361-0.46,2.884-0.479,4.504
			c-2.389-1.786-5.211-3.26-6.231-3.938C97.122,112.787,89.188,108.091,83.682,101.878z M94.658,170.677
			c0.173-1.495,0.237-3.01,0.254-4.53c1.186,0.871,2.359,1.76,3.577,2.591c0.545,0.37,1.107,0.76,1.679,1.15
			C98.334,170.189,96.497,170.444,94.658,170.677z M108.665,168.666c-1.029-0.229-2.081-0.115-3.16,0.108
			c-1.843-0.883-3.737-1.698-5.465-2.688c-1.764-1.012-3.478-2.108-5.173-3.232c-0.11-2.705-0.36-5.425-0.61-8.127
			c3.608,3.076,6.9,6.592,10.456,9.676c0.746,0.646,2.485,1.844,4.094,2.398C108.766,167.421,108.698,168.042,108.665,168.666z
			 M109.109,162.812c-0.003-0.002-0.006-0.005-0.011-0.007c-0.756-0.498-1.48-1.072-2.193-1.629
			c-1.802-1.405-3.532-2.903-5.276-4.377c-2.507-2.119-5.021-4.322-7.729-6.217c-0.071-0.903-0.145-1.808-0.195-2.7
			c-0.099-1.79-0.154-3.573-0.214-5.358c3.121,2.396,6.112,4.977,9.174,7.437c2.147,1.724,4.504,4.03,7.174,5.086
			C109.584,157.634,109.33,160.223,109.109,162.812z M110.195,151.356c-5.407-3.791-11.053-7.573-16.784-10.854
			c-0.117-4.616-0.08-9.222,0.095-13.832c2.119,3.793,5.477,6.943,8.647,9.787c2.091,1.875,5.515,5.616,8.714,6.134
			C110.695,145.518,110.47,148.44,110.195,151.356z M111.033,138.527c-0.441-0.349-0.897-0.706-1.18-0.886
			c-2.045-1.284-3.995-2.729-5.891-4.22c-3.511-2.761-7.601-6.009-9.673-10.053c-0.141-0.276-0.368-0.429-0.62-0.487
			c0.105-1.849,0.234-3.699,0.393-5.552c0.106-1.232-0.932-1.911-1.978-1.943c0.156-0.594,0.083-1.218-0.165-1.788
			c1.164,0.887,2.327,1.758,3.453,2.623c3.177,2.441,6.403,4.816,9.558,7.286c1.163,0.91,2.306,1.845,3.431,2.802
			c1.868,1.589,1.245,1.392,1.501-0.299c-0.119,0.784,0.169,1.465,0.638,1.924c0.292,3.14,0.646,6.165,0.622,8.483
			C111.112,137.123,111.054,137.823,111.033,138.527z M113.45,112.755c-3.271-2.475-7.852-4.226-11.076-6.217
			c-4.779-2.95-9.462-6.058-14.131-9.181c2.319-2.216,4.712-4.352,7.156-6.408c2.208,3.069,5.932,5.829,7.871,7.606
			c3.492,3.2,7.138,6.233,10.715,9.337c1.556,1.351,3.295,3.464,5.187,5.089C117.253,113.012,115.328,112.96,113.45,112.755z"/>
	</g>
</g>
<g>
</g>
<g>
</g>
<g>
</g>
<g>
</g>
<g>
</g>
<g>
</g>
<g>
</g>
<g>
</g>
<g>
</g>
<g>
</g>
<g>
</g>
<g>
</g>
<g>
</g>
<g>
</g>
<g>
</g>
</svg>
